PathFileType	4	(X/Y/Z)	C:/Users/beibeiliu/ov580/test_trc\sequence.38_training_dense_left.trc
DataRate	CameraRate	NumFrames	NumMarkers	Units	OrigDataRate	OrigDataStartFrame	OrigNumFrames
120	120	9	19	mm	120	235	312
Frame#	Time	ThumbCMC			ThumbMCP			ThumbIP			ThumbTip			IndexMCP			IndexPIP			IndexTip			MiddleMCP			MiddlePIP			MiddleTip			RingMCP			RingPIP			RingTip			PinkyMCP			PinkyPIP			PinkyTip			BackHand1			BackHand2			BackHand3	
		X0	Y0	Z0	X1	Y1	Z1	X2	Y2	Z2	X3	Y3	Z3	X4	Y4	Z4	X5	Y5	Z5	X6	Y6	Z6	X7	Y7	Z7	X8	Y8	Z8	X9	Y9	Z9	X10	Y10	Z10	X11	Y11	Z11	X12	Y12	Z12	X13	Y13	Z13	X14	Y14	Z14	X15	Y15	Z15	X16	Y16	Z16	X17	Y17	Z17	X18	Y18	Z18	
234	1.95	-275.076	-13.9171	42.8204	-287.834	-12.0414	18.7575	-289.977	-21.0836	-5.84667	-275.749	-24.6387	-25.0496	-279.492	-44.4285	-16.1038	-280.421	-23.5453	-36.1456	-276.574	1.26999	-22.4323	-260.944	-41.5151	-25.0184	-262.654	-13.969	-35.6846	-259.264	-1.54534	-8.57124	-242.213	-36.4736	-25.9698	-247.381	-13.4728	-31.6792	-247.505	-0.27794	-4.81291	-226.639	-34.5391	-14.7823	-232.484	-15.4582	-29.827	-241.614	1.77097	-11.1564	-232.604	-43.8025	26.9841	-230.651	-33.6416	52.0229	-255.432	-39.8014	44.098	
235	1.95833	-275.164	-12.1062	45.2684	-289.852	-11.7258	17.634	-297.54	-15.1827	-3.75389	-291.422	-23.2712	-27.7243	-277.326	-46.1495	-15.5681	-280.934	-27.4596	-34.461	-275.823	0.514923	-16.5693	-258.862	-43.4429	-25.4876	-264.658	-16.282	-34.4516	-259.385	-4.21482	-7.12075	-241.05	-38.6542	-24.3302	-248.377	-13.9955	-29.7749	-248.39	-1.77198	-6.25612	-223.482	-36.8626	-16.3808	-234.073	-16.8279	-27.7266	-241.982	-2.81941	-11.6847	-231.883	-43.5831	28.36	-227.126	-32.7836	53.3076	-260.317	-42.6093	44.1309	
236	1.96667	-279.426	-11.4422	43.3756	-291.301	-7.60438	16.6136	-299.658	-12.0771	-5.61194	-299.358	-16.9859	-28.826	-283.444	-45.709	-16.1155	-280.829	-26.7476	-32.9642	-271.771	-1.25055	-14.3678	-261.757	-46.5709	-19.0945	-262.104	-18.7022	-34.0677	-260.602	-5.92613	-8.10628	-243.754	-42.1095	-19.6578	-246.939	-13.7411	-28.6457	-248.385	-4.05537	-3.3027	-223.212	-39.1123	-14.2451	-236.094	-18.0003	-26.8713	-245.027	-6.16082	-6.3141	-236.757	-45.3512	31.5174	-229.758	-36.312	53.3114	-259.273	-41.5587	44.8387	
237	1.975	-276.468	-16.2859	39.5844	-291.067	-9.75402	12.8597	-294.998	-10.9084	-6.40784	-298.764	-12.2575	-30.7096	-284.638	-47.8459	-16.1715	-285.427	-29.4361	-32.2219	-273.714	-6.1153	-16.5592	-265.86	-48.2177	-21.578	-266.999	-22.0519	-34.8617	-260.407	-7.91103	-5.85904	-244.372	-44.2198	-20.237	-249.923	-19.7731	-30.6236	-253.299	-6.3386	-5.76152	-230.771	-41.0279	-14.8371	-234.767	-23.4162	-27.5164	-243.373	-7.75477	-4.07326	-235.296	-46.6618	29.6821	-234.231	-38.5839	52.7473	-258.709	-43.3345	46.2035	
238	1.98333	-281.278	-14.8402	41.3004	-290.67	-6.31468	15.4019	-298.95	-7.39865	-9.07689	-296.229	-10.4339	-31.4863	-286.876	-49.6443	-12.7016	-285.747	-26.9844	-31.899	-279.467	-6.73506	-12.7196	-265.986	-49.6321	-22.034	-263.688	-23.3846	-35.4525	-263.881	-8.77279	-6.38294	-248.325	-44.6938	-22.2039	-252.138	-22.1779	-31.0695	-253.202	-7.37822	-6.28309	-228.726	-42.5473	-16.2321	-238.692	-23.0926	-26.4667	-243.481	-8.68524	-6.95516	-239.456	-47.0207	31.4316	-232.786	-40.5205	51.7295	-262.069	-40.5589	47.7949	
239	1.99167	-281.451	-13.9404	41.9244	-288.593	-7.20513	12.9516	-295.254	-7.32353	-10.3893	-293.803	-8.63984	-35.9285	-283.954	-50.8136	-13.0136	-288.327	-30.6765	-31.6516	-278.032	-8.26953	-11.9102	-266.224	-51.2162	-21.3262	-264.129	-26.2113	-36.0435	-262.77	-10.229	-6.92102	-246.614	-46.9441	-20.3397	-253.072	-21.3173	-30.1	-251.574	-8.42871	-8.57887	-231.504	-44.3079	-10.8665	-239.494	-22.648	-26.78	-245.69	-9.87846	-10.0457	-238.245	-49.299	28.2233	-232.502	-38.6402	55.0031	-262.264	-43.8118	46.7784	
240	2	-280.787	-14.9868	38.6013	-289.609	-4.77449	14.1402	-295.315	-6.13012	-10.9438	-287.899	-10.2648	-33.4267	-284.161	-51.3928	-13.045	-284.247	-29.3113	-31.8951	-280.145	-9.93662	-14.4759	-265.139	-51.2516	-24.6206	-266.019	-29.4388	-37.5108	-264.365	-10.4296	-7.0125	-251.275	-47.9706	-20.9379	-253.654	-24.1468	-30.7207	-251.809	-9.50667	-5.1893	-229.645	-45.2953	-17.1986	-238.113	-24.5653	-27.4798	-246.065	-10.5343	-7.60373	-237.394	-50.5883	30.2625	-235.99	-38.2497	52.177	-263.839	-44.5454	46.826	
241	2.00833	-276.802	-14.8971	42.3841	-289.296	-6.09977	12.7494	-295.16	-9.33343	-13.5951	-287.696	-10.4761	-32.1813	-286.549	-52.1504	-12.011	-287.305	-33.6843	-31.8845	-278.797	-12.06	-13.7467	-268.494	-53.3129	-20.7958	-269.518	-27.7396	-36.5291	-264.228	-10.7017	-9.03916	-250.105	-49.6656	-21.4511	-251.899	-21.2705	-30.6109	-253.637	-11.7209	-3.77522	-229.856	-45.5221	-16.2893	-239.396	-23.7655	-26.1675	-242.548	-10.4983	-6.35932	-237.761	-51.6524	30.8893	-232.839	-38.7652	52.6645	-261.242	-46.0907	42.9483	
242	2.01667	-279.674	-15.7967	41.5932	-286.382	-10.6381	12.0013	-294.234	-9.53812	-11.313	-289.234	-12.0646	-36.847	-287.764	-52.9869	-14.1782	-285.379	-32.503	-31.1779	-277.711	-12.4864	-10.5696	-266.784	-53.2359	-22.2328	-270.434	-26.4577	-34.7188	-263.205	-11.1474	-9.52432	-246.032	-50.4375	-21.5151	-255.826	-24.206	-28.8999	-251.636	-11.2879	-2.87207	-231.793	-46.7229	-15.9528	-241.951	-26.7367	-26.243	-243.544	-10.3311	-4.22872	-241.298	-51.5256	30.8999	-234.438	-38.5025	53.9818	-263.713	-47.1526	45.4543	
